<svg xmlns="http://www.w3.org/2000/svg" width="10" height="10" viewBox="0 0 10 10"> 
        <!-- <path fill="#101717" d="M142.117 14l-4.66-5.443h-2.33V14h-3.095V0H146v8.557h-4.66L146 14zm-6.989-8.553h7.766V3.114h-7.766zM126.585 14L119.6 8.557V14h-3.1V0h3.1v5.447L126.585 0h3.883l-8.387 7.169L130.468 14zM77.659 4.67V14h-3.1V0h3.1l7.766 9.33V0h3.1v14h-3.1zM56.691 14V3.114h-5.435L51.249 0h13.99v3.114H59.8V14zM10.873 8.557H3.107V14H0V0h3.107v5.447h7.766V0h3.095v14h-3.095zM91.628 14V0h13.992v3.114H94.745v7.776h7.766V8.557h-2.33v-3.11h5.436v8.549zm-23.289 0V0h3.1v14zm-34.157 0l-.012-3.11h10.873V8.557H34.17L34.182 0h13.967v3.114H37.277v2.333h10.872V14zM17.09 14V0h13.969v14zm3.1-3.106h7.766v-7.78h-7.764z" transform="translate(0 -1) translate(0 1)"/>

        <path fill="#049a9f" d="M718.05 268.933h-7.795l3.9-6.815z" transform="translate(0 -1) translate(-602.49 -253.951)"/> -->
        <polyline points="1,2 5,5 9,2" stroke="#111" stroke-width="2" fill="none" stroke-linejoin="round" stroke-linecap="round"/>
    <!-- <line x1="0" y1="0" x2="5" y2="10" stroke="rgb(255,0,0)" strokeWidth="2"/> -->
    <!-- <line x1="0" y1="0" x2="1" y2="1" troke="rgb(255,0,0)" strokeWidth="2" /> -->
  
</svg>
